AmstelvarAlpha-ParaWeightMin.ufo
<glyph name="six" format="1">
  <advance width="1176"/>
  <unicode hex="0036"/>
  <outline>
    <contour>
      <point x="74" y="640" type="qcurve" smooth="yes"/>
      <point x="74" y="980"/>
      <point x="497" y="1467"/>
      <point x="891" y="1562" type="qcurve"/>
      <point x="891" y="1418" type="line"/>
      <point x="580" y="1350"/>
      <point x="84" y="980"/>
      <point x="84" y="640" type="qcurve" smooth="yes"/>
      <point x="84" y="340"/>
      <point x="440" y="84"/>
      <point x="625" y="84" type="qcurve" smooth="yes"/>
      <point x="810" y="84"/>
      <point x="1106" y="260"/>
      <point x="1106" y="460" type="qcurve" smooth="yes"/>
      <point x="1106" y="660"/>
      <point x="800" y="793"/>
      <point x="630" y="793" type="qcurve" smooth="yes"/>
      <point x="570" y="793"/>
      <point x="472" y="775"/>
      <point x="430" y="761" type="qcurve"/>
      <point x="403" y="833" type="line"/>
      <point x="441" y="869"/>
      <point x="551" y="926"/>
      <point x="624" y="926" type="qcurve" smooth="yes"/>
      <point x="839" y="926"/>
      <point x="1116" y="680"/>
      <point x="1116" y="460" type="qcurve" smooth="yes"/>
      <point x="1116" y="240"/>
      <point x="850" y="-27"/>
      <point x="627" y="-27" type="qcurve" smooth="yes"/>
      <point x="390" y="-27"/>
      <point x="74" y="340"/>
    </contour>
  </outline>
</glyph>
<glyph name="nine" format="1">
  <advance width="1176"/>
  <unicode hex="0039"/>
  <outline>
    <contour>
      <point x="60" y="1033" type="qcurve" smooth="yes"/>
      <point x="60" y="1253"/>
      <point x="326" y="1520"/>
      <point x="549" y="1520" type="qcurve" smooth="yes"/>
      <point x="786" y="1520"/>
      <point x="1102" y="1153"/>
      <point x="1102" y="853" type="qcurve" smooth="yes"/>
      <point x="1102" y="513"/>
      <point x="682" y="26"/>
      <point x="288" y="-69" type="qcurve"/>
      <point x="288" y="65" type="line"/>
      <point x="599" y="133"/>
      <point x="1092" y="513"/>
      <point x="1092" y="853" type="qcurve" smooth="yes"/>
      <point x="1092" y="1153"/>
      <point x="736" y="1409"/>
      <point x="551" y="1409" type="qcurve" smooth="yes"/>
      <point x="366" y="1409"/>
      <point x="70" y="1233"/>
      <point x="70" y="1033" type="qcurve" smooth="yes"/>
      <point x="70" y="833"/>
      <point x="376" y="700"/>
      <point x="546" y="700" type="qcurve" smooth="yes"/>
      <point x="606" y="700"/>
      <point x="704" y="718"/>
      <point x="746" y="732" type="qcurve"/>
      <point x="773" y="660" type="line"/>
      <point x="735" y="624"/>
      <point x="625" y="567"/>
      <point x="552" y="567" type="qcurve" smooth="yes"/>
      <point x="337" y="567"/>
      <point x="60" y="813"/>
    </contour>
  </outline>
</glyph>
<glyph name="A" format="1">
  <advance width="1353"/>
  <unicode hex="0041"/>
  <outline>
    <contour>
      <point x="-25" y="0" type="line"/>
      <point x="-25" y="100" type="line"/>
      <point x="163" y="135" type="line"/>
      <point x="324" y="540" type="line"/>
      <point x="690" y="1508" type="line"/>
      <point x="709" y="1508" type="line"/>
      <point x="1055" y="515" type="line"/>
      <point x="1187" y="133" type="line"/>
      <point x="1378" y="100" type="line"/>
      <point x="1378" y="0" type="line"/>
      <point x="944" y="0" type="line"/>
      <point x="944" y="100" type="line"/>
      <point x="1176" y="133" type="line"/>
      <point x="1045" y="511" type="line"/>
      <point x="760" y="1331" type="line"/>
      <point x="437" y="503" type="line"/>
      <point x="314" y="130" type="line"/>
      <point x="491" y="100" type="line"/>
      <point x="491" y="0" type="line"/>
    </contour>
    <contour>
      <point x="358" y="448" type="line"/>
      <point x="400" y="567" type="line"/>
      <point x="754" y="557" type="line"/>
      <point x="1032" y="568" type="line"/>
      <point x="1072" y="448" type="line"/>
    </contour>
  </outline>
</glyph>
<glyph name="B" format="1">
  <advance width="932"/>
  <unicode hex="0042"/>
  <outline>
    <contour>
      <point x="82" y="0" type="line"/>
      <point x="82" y="100" type="line"/>
      <point x="295" y="145" type="line"/>
      <point x="295" y="794" type="line"/>
      <point x="295" y="1342" type="line"/>
      <point x="82" y="1386" type="line"/>
      <point x="82" y="1500" type="line"/>
      <point x="421" y="1500" type="line" smooth="yes"/>
      <point x="597" y="1500"/>
      <point x="770" y="1323"/>
      <point x="770" y="1154" type="qcurve"/>
      <point x="770" y="1021"/>
      <point x="663" y="864"/>
      <point x="539" y="840" type="qcurve"/>
      <point x="539" y="833" type="line"/>
      <point x="712" y="791"/>
      <point x="856" y="610"/>
      <point x="856" y="440" type="qcurve" smooth="yes"/>
      <point x="856" y="245"/>
      <point x="663" y="0"/>
      <point x="495" y="0" type="qcurve" smooth="yes"/>
    </contour>
    <contour>
      <point x="305" y="135" type="line"/>
      <point x="352" y="115" type="line"/>
      <point x="518" y="115" type="line" smooth="yes"/>
      <point x="670" y="115"/>
      <point x="846" y="271"/>
      <point x="846" y="440" type="qcurve" smooth="yes"/>
      <point x="846" y="574"/>
      <point x="702" y="738"/>
      <point x="569" y="738" type="qcurve" smooth="yes"/>
      <point x="307" y="738" type="line"/>
      <point x="305" y="734" type="line"/>
    </contour>
    <contour>
      <point x="305" y="860" type="line"/>
      <point x="311" y="852" type="line"/>
      <point x="511" y="852" type="line" smooth="yes"/>
      <point x="629" y="852"/>
      <point x="760" y="1004"/>
      <point x="760" y="1131" type="qcurve" smooth="yes"/>
      <point x="760" y="1255"/>
      <point x="619" y="1370"/>
      <point x="520" y="1370" type="qcurve" smooth="yes"/>
      <point x="338" y="1370" type="line"/>
      <point x="305" y="1348" type="line"/>
    </contour>
  </outline>
</glyph>
<glyph name="C" format="1">
  <advance width="1266"/>
  <unicode hex="0043"/>
  <outline>
    <contour>
      <point x="80" y="756" type="qcurve"/>
      <point x="80" y="1068"/>
      <point x="457" y="1520"/>
      <point x="715" y="1520" type="qcurve"/>
      <point x="806" y="1520"/>
      <point x="1061" y="1452"/>
      <point x="1153" y="1388" type="qcurve"/>
      <point x="1043" y="1275" type="line"/>
      <point x="974" y="1330"/>
      <point x="776" y="1389"/>
      <point x="673" y="1389" type="qcurve" smooth="yes"/>
      <point x="400" y="1389"/>
      <point x="88" y="1061"/>
      <point x="90" y="762" type="qcurve"/>
      <point x="92" y="457"/>
      <point x="428" y="111"/>
      <point x="688" y="111" type="qcurve" smooth="yes"/>
      <point x="859" y="111"/>
      <point x="1097" y="235"/>
      <point x="1163" y="328" type="qcurve"/>
      <point x="1260" y="245" type="line"/>
      <point x="1170" y="110"/>
      <point x="902" y="-30"/>
      <point x="750" y="-30" type="qcurve" smooth="yes"/>
      <point x="463" y="-30"/>
      <point x="80" y="389"/>
    </contour>
    <contour>
      <point x="986" y="1322" type="line"/>
      <point x="1066" y="1487" type="line"/>
      <point x="1160" y="1487" type="line"/>
      <point x="1160" y="1031" type="line"/>
      <point x="1046" y="1031" type="line"/>
    </contour>
  </outline>
</glyph>
<glyph name="E" format="1">
  <advance width="1098"/>
  <unicode hex="0045"/>
  <outline>
    <contour>
      <point x="82" y="0" type="line"/>
      <point x="82" y="100" type="line"/>
      <point x="295" y="145" type="line"/>
      <point x="295" y="783" type="line"/>
      <point x="295" y="1342" type="line"/>
      <point x="82" y="1386" type="line"/>
      <point x="82" y="1500" type="line"/>
      <point x="974" y="1500" type="line"/>
      <point x="974" y="1152" type="line"/>
      <point x="864" y="1152" type="line"/>
      <point x="829" y="1382" type="line"/>
      <point x="390" y="1382" type="line"/>
      <point x="305" y="1342" type="line"/>
      <point x="305" y="783" type="line"/>
      <point x="305" y="145" type="line"/>
      <point x="389" y="108" type="line"/>
      <point x="892" y="108" type="line"/>
      <point x="968" y="378" type="line"/>
      <point x="1078" y="378" type="line"/>
      <point x="1038" y="0" type="line"/>
    </contour>
    <contour>
      <point x="301" y="738" type="line"/>
      <point x="301" y="834" type="line"/>
      <point x="683" y="844" type="line"/>
      <point x="718" y="1004" type="line"/>
      <point x="828" y="1004" type="line"/>
      <point x="828" y="568" type="line"/>
      <point x="718" y="568" type="line"/>
      <point x="683" y="728" type="line"/>
    </contour>
  </outline>
</glyph>
<glyph name="L" format="1">
  <advance width="1100"/>
  <unicode hex="004C"/>
  <outline>
    <contour>
      <point x="82" y="0" type="line"/>
      <point x="82" y="100" type="line"/>
      <point x="295" y="145" type="line"/>
      <point x="295" y="754" type="line"/>
      <point x="295" y="1342" type="line"/>
      <point x="82" y="1386" type="line"/>
      <point x="82" y="1500" type="line"/>
      <point x="553" y="1500" type="line"/>
      <point x="553" y="1386" type="line"/>
      <point x="305" y="1342" type="line"/>
      <point x="305" y="754" type="line"/>
      <point x="305" y="145" type="line"/>
      <point x="363" y="108" type="line"/>
      <point x="892" y="108" type="line"/>
      <point x="978" y="418" type="line"/>
      <point x="1100" y="418" type="line"/>
      <point x="1049" y="0" type="line"/>
    </contour>
  </outline>
</glyph>
<glyph name="M" format="1">
  <advance width="1986"/>
  <unicode hex="004D"/>
  <outline>
    <contour>
      <point x="82" y="0" type="line"/>
      <point x="82" y="100" type="line"/>
      <point x="290" y="135" type="line"/>
      <point x="292" y="754" type="line"/>
      <point x="290" y="1352" type="line"/>
      <point x="82" y="1386" type="line"/>
      <point x="82" y="1500" type="line"/>
      <point x="354" y="1500" type="line"/>
      <point x="672" y="744" type="line"/>
      <point x="956" y="45" type="line"/>
      <point x="1250" y="742" type="line"/>
      <point x="1560" y="1500" type="line"/>
      <point x="1904" y="1500" type="line"/>
      <point x="1904" y="1386" type="line"/>
      <point x="1658" y="1352" type="line"/>
      <point x="1658" y="754" type="line"/>
      <point x="1658" y="135" type="line"/>
      <point x="1904" y="100" type="line"/>
      <point x="1904" y="0" type="line"/>
      <point x="1438" y="0" type="line"/>
      <point x="1438" y="100" type="line"/>
      <point x="1648" y="135" type="line"/>
      <point x="1648" y="754" type="line"/>
      <point x="1648" y="1329" type="line"/>
      <point x="1367" y="689" type="line"/>
      <point x="1087" y="-8" type="line"/>
      <point x="965" y="-8" type="line"/>
      <point x="665" y="741" type="line"/>
      <point x="413" y="1334" type="line"/>
      <point x="411" y="754" type="line"/>
      <point x="413" y="135" type="line"/>
      <point x="631" y="100" type="line"/>
      <point x="631" y="0" type="line"/>
    </contour>
  </outline>
</glyph>
<glyph name="P" format="1">
  <advance width="918"/>
  <unicode hex="0050"/>
  <outline>
    <contour>
      <point x="82" y="0" type="line"/>
      <point x="82" y="100" type="line"/>
      <point x="295" y="145" type="line"/>
      <point x="295" y="754" type="line"/>
      <point x="295" y="1352" type="line"/>
      <point x="82" y="1386" type="line"/>
      <point x="82" y="1500" type="line"/>
      <point x="488" y="1500" type="line" smooth="yes"/>
      <point x="674" y="1500"/>
      <point x="868" y="1284"/>
      <point x="868" y="1072" type="qcurve" smooth="yes"/>
      <point x="868" y="866"/>
      <point x="662" y="599"/>
      <point x="508" y="599" type="qcurve" smooth="yes"/>
      <point x="438" y="599"/>
      <point x="330" y="620"/>
      <point x="299" y="628" type="qcurve"/>
      <point x="299" y="734" type="line"/>
      <point x="349" y="721"/>
      <point x="447" y="712"/>
      <point x="534" y="712" type="qcurve" smooth="yes"/>
      <point x="679" y="712"/>
      <point x="858" y="903"/>
      <point x="858" y="1072" type="qcurve" smooth="yes"/>
      <point x="858" y="1227"/>
      <point x="688" y="1382"/>
      <point x="528" y="1382" type="qcurve" smooth="yes"/>
      <point x="340" y="1382" type="line"/>
      <point x="303" y="1360" type="line"/>
      <point x="303" y="764" type="line"/>
      <point x="303" y="145" type="line"/>
      <point x="539" y="100" type="line"/>
      <point x="539" y="0" type="line"/>
    </contour>
  </outline>
</glyph>
<glyph name="R" format="1">
  <advance width="1127"/>
  <unicode hex="0052"/>
  <outline>
    <contour>
      <point x="82" y="0" type="line"/>
      <point x="82" y="100" type="line"/>
      <point x="295" y="145" type="line"/>
      <point x="295" y="754" type="line"/>
      <point x="295" y="1342" type="line"/>
      <point x="82" y="1386" type="line"/>
      <point x="82" y="1500" type="line"/>
      <point x="501" y="1500" type="line" smooth="yes"/>
      <point x="649" y="1500"/>
      <point x="791" y="1315"/>
      <point x="791" y="1143" type="qcurve" smooth="yes"/>
      <point x="791" y="966"/>
      <point x="617" y="736"/>
      <point x="499" y="736" type="qcurve" smooth="yes"/>
      <point x="452" y="736"/>
      <point x="357" y="745"/>
      <point x="300" y="750" type="qcurve"/>
      <point x="300" y="845" type="line"/>
      <point x="332" y="845" type="line"/>
      <point x="483" y="845" type="line" smooth="yes"/>
      <point x="639" y="845"/>
      <point x="781" y="1005"/>
      <point x="781" y="1144" type="qcurve" smooth="yes"/>
      <point x="781" y="1253"/>
      <point x="658" y="1382"/>
      <point x="521" y="1382" type="qcurve" smooth="yes"/>
      <point x="378" y="1382" type="line"/>
      <point x="305" y="1343" type="line"/>
      <point x="305" y="754" type="line"/>
      <point x="305" y="145" type="line"/>
      <point x="518" y="100" type="line"/>
      <point x="518" y="0" type="line"/>
    </contour>
    <contour>
      <point x="477" y="750" type="line"/>
      <point x="485" y="759" type="line"/>
      <point x="781" y="315" type="line" smooth="yes"/>
      <point x="868" y="184"/>
      <point x="1043" y="106"/>
      <point x="1153" y="100" type="qcurve"/>
      <point x="1153" y="0" type="line"/>
      <point x="1008" y="0" type="line"/>
      <point x="931" y="75" type="line"/>
    </contour>
  </outline>
</glyph>
<glyph name="T" format="1">
  <advance width="1122"/>
  <unicode hex="0054"/>
  <outline>
    <contour>
      <point x="40" y="1052" type="line"/>
      <point x="40" y="1500" type="line"/>
      <point x="1082" y="1500" type="line"/>
      <point x="1082" y="1052" type="line"/>
      <point x="972" y="1052" type="line"/>
      <point x="937" y="1382" type="line"/>
      <point x="608" y="1382" type="line"/>
      <point x="566" y="1362" type="line"/>
      <point x="566" y="754" type="line"/>
      <point x="566" y="145" type="line"/>
      <point x="785" y="100" type="line"/>
      <point x="785" y="0" type="line"/>
      <point x="329" y="0" type="line"/>
      <point x="329" y="100" type="line"/>
      <point x="556" y="145" type="line"/>
      <point x="556" y="754" type="line"/>
      <point x="556" y="1362" type="line"/>
      <point x="514" y="1382" type="line"/>
      <point x="185" y="1382" type="line"/>
      <point x="150" y="1052" type="line"/>
    </contour>
  </outline>
</glyph>
<glyph name="U" format="1">
  <advance width="1472"/>
  <unicode hex="0055"/>
  <outline>
    <contour>
      <point x="74" y="1386" type="line"/>
      <point x="74" y="1500" type="line"/>
      <point x="510" y="1500" type="line"/>
      <point x="510" y="1386" type="line"/>
      <point x="298" y="1338" type="line"/>
      <point x="298" y="803" type="line"/>
      <point x="300" y="475" type="line" smooth="yes"/>
      <point x="301" y="278"/>
      <point x="515" y="56"/>
      <point x="705" y="56" type="qcurve" smooth="yes"/>
      <point x="876" y="56"/>
      <point x="1071" y="284"/>
      <point x="1072" y="468" type="qcurve" smooth="yes"/>
      <point x="1074" y="794" type="line"/>
      <point x="1072" y="1352" type="line"/>
      <point x="854" y="1386" type="line"/>
      <point x="854" y="1500" type="line"/>
      <point x="1420" y="1500" type="line"/>
      <point x="1420" y="1386" type="line"/>
      <point x="1212" y="1352" type="line"/>
      <point x="1210" y="794" type="line"/>
      <point x="1213" y="494" type="line" smooth="yes"/>
      <point x="1216" y="229"/>
      <point x="917" y="-30"/>
      <point x="718" y="-30" type="qcurve" smooth="yes"/>
      <point x="513" y="-30"/>
      <point x="288" y="264"/>
      <point x="288" y="476" type="qcurve" smooth="yes"/>
      <point x="288" y="803" type="line"/>
      <point x="288" y="1338" type="line"/>
    </contour>
  </outline>
</glyph>
<glyph name="Y" format="1">
  <advance width="1176"/>
  <unicode hex="0059"/>
  <outline>
    <contour>
      <point x="-30" y="1386" type="line"/>
      <point x="-30" y="1500" type="line"/>
      <point x="327" y="1500" type="line"/>
      <point x="327" y="1386" type="line"/>
      <point x="152" y="1356" type="line"/>
      <point x="325" y="986" type="line"/>
      <point x="490" y="632" type="line"/>
      <point x="737" y="1078" type="line"/>
      <point x="884" y="1358" type="line"/>
      <point x="697" y="1386" type="line"/>
      <point x="697" y="1500" type="line"/>
      <point x="1206" y="1500" type="line"/>
      <point x="1206" y="1386" type="line"/>
      <point x="1038" y="1359" type="line"/>
      <point x="833" y="1011" type="line"/>
      <point x="550" y="503" type="line"/>
      <point x="550" y="148" type="line"/>
      <point x="773" y="100" type="line"/>
      <point x="773" y="0" type="line"/>
      <point x="314" y="0" type="line"/>
      <point x="314" y="100" type="line"/>
      <point x="540" y="148" type="line"/>
      <point x="540" y="503" type="line"/>
      <point x="316" y="982" type="line"/>
      <point x="140" y="1356" type="line"/>
    </contour>
  </outline>
</glyph>
<glyph name="asciicircum" format="1">
  <advance width="1317"/>
  <unicode hex="005E"/>
  <outline>
    <contour>
      <point x="638" y="1520" type="qcurve"/>
      <point x="638" y="1520"/>
      <point x="1133" y="985"/>
      <point x="1190" y="924" type="qcurve" smooth="yes"/>
      <point x="1205" y="908"/>
      <point x="1195" y="898"/>
      <point x="1180" y="914" type="qcurve" smooth="yes"/>
      <point x="1067" y="1035"/>
      <point x="638" y="1502"/>
      <point x="638" y="1502" type="qcurve"/>
      <point x="638" y="1502"/>
      <point x="241" y="1041"/>
      <point x="136" y="913" type="qcurve" smooth="yes"/>
      <point x="122" y="896"/>
      <point x="112" y="906"/>
      <point x="126" y="923" type="qcurve" smooth="yes"/>
      <point x="179" y="988"/>
      <point x="638" y="1520"/>
    </contour>
  </outline>
</glyph>
<glyph name="c" format="1">
  <advance width="837"/>
  <unicode hex="0063"/>
  <outline>
    <contour>
      <point x="64" y="488" type="qcurve"/>
      <point x="64" y="706"/>
      <point x="289" y="1022"/>
      <point x="440" y="1022" type="qcurve" smooth="yes"/>
      <point x="534" y="1022"/>
      <point x="666" y="955"/>
      <point x="713" y="892" type="qcurve"/>
      <point x="597" y="769" type="line"/>
      <point x="588" y="828"/>
      <point x="462" y="911"/>
      <point x="379" y="911" type="qcurve" smooth="yes"/>
      <point x="254" y="911"/>
      <point x="73" y="700"/>
      <point x="74" y="490" type="qcurve"/>
      <point x="75" y="319"/>
      <point x="273" y="108"/>
      <point x="444" y="108" type="qcurve" smooth="yes"/>
      <point x="548" y="108"/>
      <point x="690" y="177"/>
      <point x="745" y="228" type="qcurve"/>
      <point x="789" y="177" type="line"/>
      <point x="755" y="102"/>
      <point x="575" y="-22"/>
      <point x="453" y="-22" type="qcurve" smooth="yes"/>
      <point x="281" y="-22"/>
      <point x="64" y="253"/>
    </contour>
    <contour>
      <point x="580" y="850" type="line"/>
      <point x="631" y="1002" type="line"/>
      <point x="722" y="1002" type="line"/>
      <point x="722" y="647" type="line"/>
      <point x="623" y="647" type="line"/>
    </contour>
  </outline>
</glyph>
<glyph name="i" format="1">
  <advance width="463"/>
  <unicode hex="0069"/>
  <outline>
    <contour>
      <point x="77" y="0" type="line"/>
      <point x="77" y="80" type="line"/>
      <point x="236" y="116" type="line"/>
      <point x="236" y="527" type="line"/>
      <point x="236" y="842" type="line"/>
      <point x="72" y="872" type="line"/>
      <point x="72" y="966" type="line"/>
      <point x="240" y="1000" type="line"/>
      <point x="246" y="1000" type="line"/>
      <point x="246" y="961" type="line"/>
      <point x="246" y="527" type="line"/>
      <point x="246" y="116" type="line"/>
      <point x="397" y="80" type="line"/>
      <point x="397" y="0" type="line"/>
    </contour>
    <contour>
      <point x="212" y="1337" type="qcurve" smooth="yes"/>
      <point x="212" y="1352"/>
      <point x="228" y="1368"/>
      <point x="243" y="1368" type="qcurve" smooth="yes"/>
      <point x="257" y="1368"/>
      <point x="275" y="1351"/>
      <point x="275" y="1337" type="qcurve" smooth="yes"/>
      <point x="275" y="1322"/>
      <point x="258" y="1306"/>
      <point x="243" y="1306" type="qcurve" smooth="yes"/>
      <point x="229" y="1306"/>
      <point x="212" y="1323"/>
    </contour>
  </outline>
</glyph>
<glyph name="j" format="1">
  <advance width="384"/>
  <unicode hex="006A"/>
  <outline>
    <contour>
      <point x="40" y="-460" type="line"/>
      <point x="40" y="-370" type="line"/>
      <point x="219" y="-335" type="line"/>
      <point x="219" y="527" type="line"/>
      <point x="219" y="842" type="line"/>
      <point x="45" y="872" type="line"/>
      <point x="45" y="966" type="line"/>
      <point x="226" y="1000" type="line"/>
      <point x="229" y="1000" type="line"/>
      <point x="229" y="961" type="line"/>
      <point x="229" y="527" type="line"/>
      <point x="229" y="-380" type="line" smooth="yes"/>
      <point x="229" y="-431"/>
      <point x="184" y="-492"/>
      <point x="120" y="-492" type="qcurve"/>
    </contour>
    <contour>
      <point x="189" y="1337" type="qcurve" smooth="yes"/>
      <point x="189" y="1352"/>
      <point x="205" y="1368"/>
      <point x="220" y="1368" type="qcurve" smooth="yes"/>
      <point x="234" y="1368"/>
      <point x="252" y="1351"/>
      <point x="252" y="1337" type="qcurve" smooth="yes"/>
      <point x="252" y="1322"/>
      <point x="235" y="1306"/>
      <point x="220" y="1306" type="qcurve" smooth="yes"/>
      <point x="206" y="1306"/>
      <point x="189" y="1323"/>
    </contour>
  </outline>
</glyph>
<glyph name="k" format="1">
  <advance width="960"/>
  <unicode hex="006B"/>
  <outline>
    <contour>
      <point x="76" y="0" type="line"/>
      <point x="76" y="80" type="line"/>
      <point x="226" y="115" type="line"/>
      <point x="226" y="557" type="line"/>
      <point x="226" y="1362" type="line"/>
      <point x="52" y="1406" type="line"/>
      <point x="52" y="1500" type="line"/>
      <point x="236" y="1534" type="line"/>
      <point x="236" y="1524" type="line"/>
      <point x="236" y="1502" type="line"/>
      <point x="236" y="557" type="line"/>
      <point x="236" y="115" type="line"/>
      <point x="384" y="80" type="line"/>
      <point x="384" y="0" type="line"/>
    </contour>
    <contour>
      <point x="232" y="456" type="line"/>
      <point x="232" y="570" type="line"/>
      <point x="566" y="880" type="line"/>
      <point x="419" y="910" type="line"/>
      <point x="419" y="1000" type="line"/>
      <point x="865" y="1000" type="line"/>
      <point x="865" y="910" type="line"/>
      <point x="707" y="875" type="line"/>
    </contour>
    <contour>
      <point x="428" y="644" type="line"/>
      <point x="440" y="644" type="line"/>
      <point x="808" y="115" type="line"/>
      <point x="980" y="80" type="line"/>
      <point x="980" y="0" type="line"/>
      <point x="874" y="0" type="line"/>
      <point x="840" y="25" type="line"/>
      <point x="796" y="115" type="line"/>
    </contour>
  </outline>
</glyph>
<glyph name="l" format="1">
  <advance width="632"/>
  <unicode hex="006C"/>
  <outline>
    <contour>
      <point x="76" y="0" type="line"/>
      <point x="76" y="80" type="line"/>
      <point x="318" y="133" type="line"/>
      <point x="318" y="527" type="line"/>
      <point x="318" y="1366" type="line"/>
      <point x="52" y="1406" type="line"/>
      <point x="52" y="1500" type="line"/>
      <point x="326" y="1534" type="line"/>
      <point x="328" y="1532" type="line"/>
      <point x="328" y="1501" type="line"/>
      <point x="328" y="527" type="line"/>
      <point x="328" y="133" type="line"/>
      <point x="566" y="80" type="line"/>
      <point x="566" y="0" type="line"/>
    </contour>
  </outline>
</glyph>
<glyph name="m" format="1">
  <advance width="1455"/>
  <unicode hex="006D"/>
  <outline>
    <contour>
      <point x="76" y="0" type="line"/>
      <point x="76" y="80" type="line"/>
      <point x="226" y="115" type="line"/>
      <point x="226" y="527" type="line"/>
      <point x="226" y="842" type="line"/>
      <point x="76" y="872" type="line"/>
      <point x="76" y="966" type="line"/>
      <point x="231" y="1000" type="line"/>
      <point x="236" y="973" type="line"/>
      <point x="236" y="872" type="line"/>
      <point x="236" y="527" type="line"/>
      <point x="236" y="115" type="line"/>
      <point x="376" y="80" type="line"/>
      <point x="376" y="0" type="line"/>
    </contour>
    <contour>
      <point x="233" y="719" type="qcurve"/>
      <point x="231" y="790" type="line"/>
      <point x="264" y="889"/>
      <point x="423" y="1021"/>
      <point x="512" y="1021" type="qcurve" smooth="yes"/>
      <point x="623" y="1021"/>
      <point x="736" y="872"/>
      <point x="736" y="742" type="qcurve" smooth="yes"/>
      <point x="736" y="668"/>
      <point x="736" y="527"/>
      <point x="736" y="527" type="qcurve"/>
      <point x="736" y="115" type="line"/>
      <point x="889" y="80" type="line"/>
      <point x="889" y="0" type="line"/>
      <point x="566" y="0" type="line"/>
      <point x="566" y="80" type="line"/>
      <point x="726" y="115" type="line"/>
      <point x="726" y="527" type="line"/>
      <point x="726" y="702" type="line" smooth="yes"/>
      <point x="726" y="785"/>
      <point x="618" y="877"/>
      <point x="529" y="877" type="qcurve" smooth="yes"/>
      <point x="438" y="877"/>
      <point x="277" y="789"/>
    </contour>
    <contour>
      <point x="733" y="719" type="qcurve"/>
      <point x="731" y="790" type="line"/>
      <point x="764" y="889"/>
      <point x="923" y="1021"/>
      <point x="1012" y="1021" type="qcurve" smooth="yes"/>
      <point x="1123" y="1021"/>
      <point x="1236" y="872"/>
      <point x="1236" y="742" type="qcurve" smooth="yes"/>
      <point x="1236" y="668"/>
      <point x="1236" y="527"/>
      <point x="1236" y="527" type="qcurve"/>
      <point x="1236" y="115" type="line"/>
      <point x="1389" y="80" type="line"/>
      <point x="1389" y="0" type="line"/>
      <point x="1066" y="0" type="line"/>
      <point x="1066" y="80" type="line"/>
      <point x="1226" y="115" type="line"/>
      <point x="1226" y="527" type="line"/>
      <point x="1226" y="702" type="line" smooth="yes"/>
      <point x="1226" y="785"/>
      <point x="1118" y="877"/>
      <point x="1029" y="877" type="qcurve" smooth="yes"/>
      <point x="938" y="877"/>
      <point x="777" y="789"/>
    </contour>
  </outline>
</glyph>
<glyph name="o" format="1">
  <advance width="822"/>
  <unicode hex="006F"/>
  <outline>
    <contour>
      <point x="64" y="500" type="qcurve" smooth="yes"/>
      <point x="64" y="717"/>
      <point x="255" y="1022"/>
      <point x="410" y="1022" type="qcurve" smooth="yes"/>
      <point x="565" y="1022"/>
      <point x="758" y="737"/>
      <point x="758" y="506" type="qcurve" smooth="yes"/>
      <point x="758" y="290"/>
      <point x="568" y="-22"/>
      <point x="414" y="-22" type="qcurve" smooth="yes"/>
      <point x="258" y="-22"/>
      <point x="64" y="267"/>
    </contour>
    <contour>
      <point x="74" y="520" type="qcurve" smooth="yes"/>
      <point x="75" y="339"/>
      <point x="259" y="88"/>
      <point x="410" y="88" type="qcurve" smooth="yes"/>
      <point x="572" y="88"/>
      <point x="748" y="317"/>
      <point x="748" y="506" type="qcurve" smooth="yes"/>
      <point x="748" y="680"/>
      <point x="564" y="906"/>
      <point x="412" y="906" type="qcurve" smooth="yes"/>
      <point x="248" y="906"/>
      <point x="73" y="700"/>
    </contour>
  </outline>
</glyph>
<glyph name="p" format="1">
  <advance width="888"/>
  <unicode hex="0070"/>
  <outline>
    <contour>
      <point x="61" y="-480" type="line"/>
      <point x="61" y="-400" type="line"/>
      <point x="224" y="-360" type="line"/>
      <point x="224" y="427" type="line"/>
      <point x="224" y="842" type="line"/>
      <point x="56" y="872" type="line"/>
      <point x="56" y="966" type="line"/>
      <point x="234" y="1000" type="line"/>
      <point x="234" y="973" type="line"/>
      <point x="234" y="872" type="line"/>
      <point x="234" y="427" type="line"/>
      <point x="234" y="-360" type="line"/>
      <point x="406" y="-400" type="line"/>
      <point x="406" y="-480" type="line"/>
    </contour>
    <contour>
      <point x="229" y="139" type="qcurve"/>
      <point x="229" y="245" type="line"/>
      <point x="261" y="183"/>
      <point x="412" y="91"/>
      <point x="516" y="91" type="qcurve" smooth="yes"/>
      <point x="652" y="91"/>
      <point x="809" y="313"/>
      <point x="809" y="505" type="qcurve" smooth="yes"/>
      <point x="809" y="688"/>
      <point x="653" y="895"/>
      <point x="520" y="895" type="qcurve" smooth="yes"/>
      <point x="418" y="895"/>
      <point x="271" y="805"/>
      <point x="230" y="736" type="qcurve"/>
      <point x="230" y="793" type="line"/>
      <point x="255" y="873"/>
      <point x="390" y="1020"/>
      <point x="509" y="1020" type="qcurve" smooth="yes"/>
      <point x="644" y="1020"/>
      <point x="820" y="754"/>
      <point x="820" y="530" type="qcurve" smooth="yes"/>
      <point x="820" y="286"/>
      <point x="638" y="-12"/>
      <point x="484" y="-12" type="qcurve" smooth="yes"/>
      <point x="386" y="-12"/>
      <point x="252" y="85"/>
    </contour>
  </outline>
</glyph>
<glyph name="q" format="1">
  <advance width="939"/>
  <unicode hex="0071"/>
  <outline>
    <contour>
      <point x="68" y="477" type="qcurve" smooth="yes"/>
      <point x="68" y="721"/>
      <point x="249" y="1019"/>
      <point x="404" y="1019" type="qcurve" smooth="yes"/>
      <point x="502" y="1019"/>
      <point x="641" y="922"/>
      <point x="664" y="868" type="qcurve"/>
      <point x="663" y="763" type="line"/>
      <point x="631" y="825"/>
      <point x="479" y="917"/>
      <point x="389" y="917" type="qcurve" smooth="yes"/>
      <point x="236" y="917"/>
      <point x="78" y="695"/>
      <point x="78" y="503" type="qcurve" smooth="yes"/>
      <point x="78" y="320"/>
      <point x="236" y="113"/>
      <point x="377" y="113" type="qcurve" smooth="yes"/>
      <point x="479" y="113"/>
      <point x="620" y="203"/>
      <point x="662" y="272" type="qcurve"/>
      <point x="663" y="214" type="line"/>
      <point x="638" y="134"/>
      <point x="494" y="-13"/>
      <point x="382" y="-13" type="qcurve" smooth="yes"/>
      <point x="246" y="-13"/>
      <point x="68" y="253"/>
    </contour>
    <contour>
      <point x="477" y="-480" type="line"/>
      <point x="477" y="-400" type="line"/>
      <point x="657" y="-365" type="line"/>
      <point x="657" y="220" type="line"/>
      <point x="657" y="916" type="line"/>
      <point x="657" y="1010" type="line"/>
      <point x="899" y="975" type="line"/>
      <point x="899" y="882" type="line"/>
      <point x="667" y="830" type="line"/>
      <point x="667" y="428" type="line"/>
      <point x="667" y="-365" type="line"/>
      <point x="897" y="-400" type="line"/>
      <point x="897" y="-480" type="line"/>
    </contour>
  </outline>
</glyph>
<glyph name="t" format="1">
  <advance width="450"/>
  <unicode hex="0074"/>
  <outline>
    <contour>
      <point x="16" y="872" type="line"/>
      <point x="16" y="946" type="line"/>
      <point x="95" y="977"/>
      <point x="162" y="1100"/>
      <point x="182" y="1180" type="qcurve"/>
      <point x="190" y="1180" type="line"/>
      <point x="190" y="1140" type="line"/>
      <point x="190" y="527" type="line"/>
      <point x="190" y="166" type="line"/>
      <point x="190" y="109" type="line"/>
      <point x="385" y="109" type="line"/>
      <point x="385" y="29" type="line"/>
      <point x="236" y="-8" type="line"/>
      <point x="206" y="2"/>
      <point x="180" y="60"/>
      <point x="180" y="120" type="qcurve"/>
      <point x="180" y="527" type="line"/>
      <point x="180" y="854" type="line"/>
    </contour>
    <contour>
      <point x="178" y="872" type="line"/>
      <point x="182" y="974" type="line"/>
      <point x="408" y="974" type="line"/>
      <point x="408" y="872" type="line"/>
    </contour>
  </outline>
</glyph>
<glyph name="u" format="1">
  <advance width="934"/>
  <unicode hex="0075"/>
  <outline>
    <contour>
      <point x="56" y="872" type="line"/>
      <point x="56" y="966" type="line"/>
      <point x="212" y="1000" type="line"/>
      <point x="218" y="1000" type="line"/>
      <point x="218" y="964" type="line"/>
      <point x="218" y="473" type="line"/>
      <point x="218" y="310" type="line" smooth="yes"/>
      <point x="218" y="205"/>
      <point x="324" y="113"/>
      <point x="424" y="113" type="qcurve"/>
      <point x="525" y="113"/>
      <point x="674" y="207"/>
      <point x="712" y="271" type="qcurve"/>
      <point x="712" y="207" type="line"/>
      <point x="657" y="98"/>
      <point x="468" y="-21"/>
      <point x="393" y="-21" type="qcurve" smooth="yes"/>
      <point x="297" y="-21"/>
      <point x="208" y="101"/>
      <point x="208" y="250" type="qcurve" smooth="yes"/>
      <point x="208" y="305"/>
      <point x="208" y="473"/>
      <point x="208" y="473" type="qcurve"/>
      <point x="208" y="842" type="line"/>
    </contour>
    <contour>
      <point x="568" y="872" type="line"/>
      <point x="568" y="966" type="line"/>
      <point x="713" y="1000" type="line"/>
      <point x="718" y="1000" type="line"/>
      <point x="718" y="964" type="line"/>
      <point x="718" y="473" type="line"/>
      <point x="718" y="148" type="line"/>
      <point x="868" y="118" type="line"/>
      <point x="868" y="34" type="line"/>
      <point x="766" y="0" type="line"/>
      <point x="731" y="27" type="line"/>
      <point x="706" y="150" type="line"/>
      <point x="708" y="473" type="line"/>
      <point x="708" y="842" type="line"/>
    </contour>
  </outline>
</glyph>
<glyph name="w" format="1">
  <advance width="1393"/>
  <unicode hex="0077"/>
  <outline>
    <contour>
      <point x="-10" y="910" type="line"/>
      <point x="-10" y="1000" type="line"/>
      <point x="254" y="1000" type="line"/>
      <point x="254" y="910" type="line"/>
      <point x="121" y="873" type="line"/>
      <point x="275" y="480" type="line"/>
      <point x="404" y="134" type="line"/>
      <point x="534" y="474" type="line"/>
      <point x="628" y="750" type="line"/>
      <point x="687" y="600" type="line"/>
      <point x="617" y="415" type="line"/>
      <point x="462" y="-8" type="line"/>
      <point x="444" y="-8" type="line"/>
      <point x="265" y="477" type="line"/>
      <point x="108" y="875" type="line"/>
    </contour>
    <contour>
      <point x="457" y="910" type="line"/>
      <point x="457" y="1000" type="line"/>
      <point x="721" y="1000" type="line"/>
      <point x="721" y="910" type="line"/>
      <point x="588" y="873" type="line"/>
      <point x="759" y="436" type="line"/>
      <point x="867" y="141" type="line"/>
      <point x="1016" y="531" type="line"/>
      <point x="1135" y="880" type="line"/>
      <point x="998" y="910" type="line"/>
      <point x="998" y="1000" type="line"/>
      <point x="1403" y="1000" type="line"/>
      <point x="1403" y="910" type="line"/>
      <point x="1255" y="875" type="line"/>
      <point x="1105" y="489" type="line"/>
      <point x="929" y="-8" type="line"/>
      <point x="911" y="-8" type="line"/>
      <point x="749" y="432" type="line"/>
      <point x="575" y="875" type="line"/>
    </contour>
  </outline>
</glyph>
<glyph name="x" format="1">
  <advance width="1043"/>
  <unicode hex="0078"/>
  <outline>
    <contour>
      <point x="16" y="0" type="line"/>
      <point x="16" y="80" type="line"/>
      <point x="174" y="115" type="line"/>
      <point x="487" y="539" type="line"/>
      <point x="500" y="557" type="line"/>
      <point x="727" y="880" type="line"/>
      <point x="590" y="910" type="line"/>
      <point x="590" y="1000" type="line"/>
      <point x="1006" y="1000" type="line"/>
      <point x="1006" y="910" type="line"/>
      <point x="858" y="875" type="line"/>
      <point x="558" y="479" type="line"/>
      <point x="552" y="470" type="line"/>
      <point x="305" y="110" type="line"/>
      <point x="432" y="80" type="line"/>
      <point x="432" y="0" type="line"/>
    </contour>
    <contour>
      <point x="20" y="910" type="line"/>
      <point x="20" y="1000" type="line"/>
      <point x="442" y="1000" type="line"/>
      <point x="442" y="910" type="line"/>
      <point x="235" y="874" type="line"/>
      <point x="527" y="504" type="line"/>
      <point x="831" y="116" type="line"/>
      <point x="1043" y="80" type="line"/>
      <point x="1043" y="0" type="line"/>
      <point x="611" y="0" type="line"/>
      <point x="611" y="80" type="line"/>
      <point x="818" y="116" type="line"/>
      <point x="514" y="504" type="line"/>
      <point x="222" y="874" type="line"/>
    </contour>
  </outline>
</glyph>
